<svg xmlns="http://www.w3.org/2000/svg" width="29.52" height="15.32" viewBox="0 0 29.52 15.32">
  <g id="MainMenu" transform="translate(-10.114 -21.338)">
    <g id="Group_285" data-name="Group 285" transform="translate(10.114 21.338)">
      <g id="Group_284" data-name="Group 284" transform="translate(0 0)">
        <g id="Group_283" data-name="Group 283" transform="translate(0 0)">
          <g id="Group_282" data-name="Group 282">
            <path id="Path_307" data-name="Path 307" d="M21.559,4.775l.354-.354.7.7-.354.351L13.171,14.57l-.351.354-.705-.705.351-.351Z" transform="translate(-9.706 -2.012)" fill="red"/>
            <path id="Path_308" data-name="Path 308" d="M36.752,10.931l.3.221-.443.6-.3-.222-8.1-5.978-.3-.222.443-.6.3.222Z" transform="translate(-16.226 -2.139)" fill="#007fba"/>
            <path id="Path_309" data-name="Path 309" d="M48.06,4.983l.266-.261.523.533-.266.261L42.48,11.5l-.269.261-.521-.535.266-.262Z" transform="translate(-21.914 -2.136)" fill="#12ff00"/>
            <path id="Path_310" data-name="Path 310" d="M8.012,18.917a3.114,3.114,0,1,1,3.114,3.113A3.114,3.114,0,0,1,8.012,18.917Z" transform="translate(-8.012 -6.71)" fill="red"/>
            <path id="Path_311" data-name="Path 311" d="M23.921,3.432a3.114,3.114,0,1,1,3.114,3.114A3.114,3.114,0,0,1,23.921,3.432Z" transform="translate(-14.579 -0.318)" fill="#007fba"/>
            <path id="Path_312" data-name="Path 312" d="M37.285,13.615A3.114,3.114,0,1,1,40.4,16.73a3.114,3.114,0,0,1-3.114-3.115Z" transform="translate(-20.096 -4.522)" fill="#12ff00"/>
            <path id="Path_313" data-name="Path 313" d="M47.679,3.432a3.114,3.114,0,1,1,3.114,3.114A3.114,3.114,0,0,1,47.679,3.432Z" transform="translate(-24.387 -0.318)" fill="#949b94"/>
          </g>
        </g>
      </g>
    </g>
  </g>
</svg>
